<svg xmlns="http://www.w3.org/2000/svg" width="25.058" height="25" viewBox="0 0 25.058 25">
    <path d="M12.525 0a11.772 11.772 0 0 1 4.611.85 12.678 12.678 0 0 1 6.607 6.039 11.843 11.843 0 0 1 1.223 4.051 12.828 12.828 0 0 1-.226 4.424 12.634 12.634 0 0 1-6.577 8.316 11.881 11.881 0 0 1-4.513 1.272 13.1 13.1 0 0 1-3.856-.238 11.939 11.939 0 0 1-3.948-1.645.482.482 0 0 0-.457-.043q-2.056.665-4.115 1.321c-.133.042-.3.17-.408.056s.049-.256.092-.386q.331-1.01.667-2.019c.214-.645.426-1.291.649-1.933a.481.481 0 0 0-.066-.476 12.152 12.152 0 0 1-1.49-2.885 12.021 12.021 0 0 1-.708-3.66A12.541 12.541 0 0 1 6.884 1.316a11.746 11.746 0 0 1 4.05-1.23A12.023 12.023 0 0 1 12.525 0M5.293 9.234a6.042 6.042 0 0 0 1.02 3.025 20.36 20.36 0 0 0 2.07 2.735 15.863 15.863 0 0 0 2.35 2.147 13.738 13.738 0 0 0 4.7 2.127 3.986 3.986 0 0 0 3.026-.322 2.821 2.821 0 0 0 1.57-2.647.6.6 0 0 0-.387-.625c-.887-.405-1.742-.878-2.642-1.255a.778.778 0 0 0-1.139.324c-.234.342-.484.671-.745.992a.821.821 0 0 1-1.038.3 8.031 8.031 0 0 1-1.55-.758 10.27 10.27 0 0 1-3.389-3.5.57.57 0 0 1 .043-.819c.278-.345.6-.654.861-1.012a.812.812 0 0 0 .094-.874c-.1-.216-.188-.434-.282-.651-.326-.752-.6-1.524-.963-2.263a.6.6 0 0 0-.593-.375c-.236 0-.473-.006-.709 0a1.539 1.539 0 0 0-1.04.447 4.045 4.045 0 0 0-1.257 3" style="fill:#e81837"/>
</svg>
