<svg xmlns="http://www.w3.org/2000/svg" width="10" height="10" viewBox="0 0 10 10">
    <path d="M85-870a4.87 4.87 0 0 1-1.95-.394 5.049 5.049 0 0 1-1.587-1.069 5.051 5.051 0 0 1-1.069-1.588A4.868 4.868 0 0 1 80-875a4.869 4.869 0 0 1 .394-1.95 5.051 5.051 0 0 1 1.069-1.588 5.051 5.051 0 0 1 1.587-1.069A4.87 4.87 0 0 1 85-880a4.87 4.87 0 0 1 1.95.394 5.051 5.051 0 0 1 1.587 1.069 5.051 5.051 0 0 1 1.069 1.588A4.869 4.869 0 0 1 90-875a4.868 4.868 0 0 1-.394 1.95 5.051 5.051 0 0 1-1.069 1.588 5.049 5.049 0 0 1-1.587 1.069A4.87 4.87 0 0 1 85-870zm0-1a3.861 3.861 0 0 0 2.838-1.163A3.86 3.86 0 0 0 89-875a3.907 3.907 0 0 0-.219-1.3 3.976 3.976 0 0 0-.631-1.15l-5.6 5.6a3.976 3.976 0 0 0 1.15.631A3.909 3.909 0 0 0 85-871zm-3.15-1.55 5.6-5.6a3.973 3.973 0 0 0-1.15-.631A3.906 3.906 0 0 0 85-879a3.86 3.86 0 0 0-2.838 1.162A3.861 3.861 0 0 0 81-875a3.906 3.906 0 0 0 .219 1.3 3.974 3.974 0 0 0 .631 1.15z" transform="translate(-80 880)" style="fill:#e81837"/>
</svg>
