<svg xmlns="http://www.w3.org/2000/svg" width="52.702" height="40.999" viewBox="0 0 52.702 40.999">
    <path d="M41.144 39.913c-3.323-3.708-6.577-7.488-9.52-11.508-.158-.205-.153-.227.092-.34a20.926 20.926 0 0 0 8.748-7.054c.189-.16.3-.754.592-.554 1.643 1.334 3.346 2.6 5.063 3.832 1.762 1.307 3.634 2.513 5.35 3.856q-4.852 5.705-9.72 11.4c-.145.109-.284.458-.457.458a.2.2 0 0 1-.148-.09zm-31.115-.5c-.536-.632-1.078-1.258-1.615-1.888Q5.147 33.69 1.88 29.851c-.22-.412-2.225-2.243-1.829-2.435 4.223-2.7 8.523-5.269 12.739-7.974 1.867-.684 4.266-.666 5.576-2.417.421-.329.184-1.348.563-1.312 1.42.166 3.924-.047 3.987-1.865a3.445 3.445 0 0 0-.31-1.541c-.191-.416 1.06-.961 1.114-1.9.4-1.13-.662-1.937-.407-2.617.54-1.125-.513-2.189-1.2-2.979-.175-.234.092-.187.418-.14s.706.094.76-.137c.059-.1.117-.041.157.02a.624.624 0 0 0 .565.257 29.235 29.235 0 0 0 4.743-.328c1.328-.227-1.555-2.552-1.874-3.067C26.1.8 27 1.2 27.363 1.3c3.213 1.244 9.713.122 8 5.6-.094 1.071 2.036-.315 2.408 3.51-.1 1.964 1.692-.036 1.67 4.711.007.284.148.441.425.383a.829.829 0 0 1 .979.571c1.606 2.531-1.867 5.657-3.478 7.438a22.933 22.933 0 0 1-10.006 5.344c-4.723.918-4.975.625-8.968 3.778-2.819 2.147-5.517 4.448-8.167 6.8a.156.156 0 0 1-.1.051c-.032-.007-.06-.032-.097-.073zm2-22.6c-.248-2.6 6.7-2.34 5.929-.549-.889 1.694-3.168 1.933-4.862 2.3-.662.004-1.024-1.221-1.065-1.749zm7.679-1.744c-1.818-.092-3.481-1.228-5.377-.79-1.543.3-1.5.263-2.119-1.262a2.063 2.063 0 0 1 .461-1.748c.353-.509 1.053-.365 1.762-.223a3.171 3.171 0 0 0 1.346.092 13.036 13.036 0 0 1 6.133 1.305c.9 1.74-.3 2.636-1.907 2.636q-.145.002-.297-.008zm2.052-3.551a18.222 18.222 0 0 0-5.121-1.053c-.358-.025-.711-.023-1.055-.022a3.944 3.944 0 0 1-2.38-.457c-.725-1.4-.835-3.487 1.087-3.854a.362.362 0 0 1 .4.085A4.779 4.779 0 0 0 16.338 7a38.967 38.967 0 0 0 5.836 1.3c.743.139.945 1.177.886 1.829-.134.552-.591 1.4-1.2 1.4a.675.675 0 0 1-.098-.01zm-4.1-4.826c-.873-.365-2.583-.414-2.66-1.6-.058-.8.079-2.043 1.107-1.989 1.474.207 2.723 1.2 4.259 1.278a4.761 4.761 0 0 1 2.376 2.722c.12.353-.168.481-.659.481a35.815 35.815 0 0 1-4.416-.89zm6.287-2.761c-.072-.455-.5-.97-.864-.421-.146.175-.207.513-.49.481-2.068-.243-4.462-.374-5.906-2.081-1.307-1.6.392-1.5 1.926-1.393A5.986 5.986 0 0 0 20.291.5C21.564.41 22.82.188 24.08 0c.729-.059 1.075.812 1.582 1.211A32.835 32.835 0 0 1 27.977 3.7c.367.428-2.666.385-3.024.432a1.308 1.308 0 0 0-.365 0 2.715 2.715 0 0 1-.234.014c-.179 0-.334-.039-.4-.214z" transform="translate(.514 .499)" style="fill:#e81837;stroke:transparent;stroke-miterlimit:10"/>
</svg>
