<svg xmlns="http://www.w3.org/2000/svg" width="51.523" height="40.999" viewBox="0 0 51.523 40.999">
    <path d="M29.439 39.827q-1.181-1.177-2.318-2.4a.464.464 0 0 1 .021-.427 3.2 3.2 0 0 1 .56-.589.585.585 0 0 0 .166-.671 6.048 6.048 0 0 1-.173-3.02 1.306 1.306 0 0 0-.429-1.3 148.115 148.115 0 0 1-2.006-2.183c-.665.733-1.329 1.465-2.006 2.183a1.306 1.306 0 0 0-.429 1.3 6.048 6.048 0 0 1-.173 3.02.582.582 0 0 0 .166.671 3.2 3.2 0 0 1 .56.589.463.463 0 0 1 .019.427q-1.136 1.22-2.316 2.4a.4.4 0 0 1-.673-.027c-.087-.119-.215-.205-.3-.324a.815.815 0 0 0-1-.247A5.353 5.353 0 0 1 12.933 37a6.76 6.76 0 0 1-1-3.35 10.839 10.839 0 0 1 .283-1.359 1.021 1.021 0 0 0-.325-1.273 1.33 1.33 0 0 1-.355-.6.5.5 0 0 1 .145-.38c.689-.725 1.391-1.44 2.09-2.153.262-.266.533-.3.733-.022a1.414 1.414 0 0 0 1.751.531 8.38 8.38 0 0 1 2.419 0 1.082 1.082 0 0 0 .91-.27c.826-.8 1.656-1.591 2.484-2.387q-.876-.958-1.754-1.915c-.567-.616-1.147-1.219-1.711-1.84-.847-.931-1.67-1.886-2.536-2.8-.191-.2-.145-.272 0-.421q1.128-1.147 2.244-2.308c.142-.149.238-.169.387-.02.24.241.5.466.742.7.537.522 1.067 1.053 1.611 1.57 1.116 1.058 2.242 2.108 3.362 3.163l.847.806c.282-.268.561-.538.845-.806 1.121-1.055 2.246-2.1 3.363-3.163.544-.517 1.072-1.048 1.611-1.57.245-.238.5-.463.742-.7.147-.149.245-.13.387.02q1.112 1.164 2.244 2.308c.149.149.192.22 0 .421-.864.913-1.69 1.868-2.536 2.8-.563.621-1.144 1.224-1.711 1.84-.586.637-1.168 1.276-1.754 1.915q1.244 1.193 2.485 2.387a1.08 1.08 0 0 0 .908.27 8.392 8.392 0 0 1 2.421 0 1.414 1.414 0 0 0 1.751-.531c.2-.283.47-.245.731.022.7.713 1.4 1.427 2.09 2.153a.485.485 0 0 1 .145.38 1.315 1.315 0 0 1-.355.6 1.025 1.025 0 0 0-.325 1.273 10.246 10.246 0 0 1 .283 1.359 6.76 6.76 0 0 1-1 3.35 5.35 5.35 0 0 1-6.167 2.232.814.814 0 0 0-1 .247c-.087.119-.217.205-.3.324a.412.412 0 0 1-.328.2.507.507 0 0 1-.351-.176zm5.629-5.893a2.023 2.023 0 1 0-4.042-.166 2.048 2.048 0 0 0 2.06 2.1c.922.218 1.973-.95 1.981-1.934zm-19.614 0c.009.985 1.058 2.153 1.982 1.937a2.036 2.036 0 1 0-.124-4.066h-.029a2.025 2.025 0 0 0-1.83 2.129zm21.427-10.107c-.378-.382-.152-.756-.01-1.132s.317-.734.437-1.116a1.357 1.357 0 0 0-.381-1.4q-3.025-3.132-6.071-6.239a1.623 1.623 0 0 0-1.737-.274c-.31.144-.624.279-.925.441a.723.723 0 0 1-.944-.133c-.572-.578-1.144-1.156-1.754-1.775.331-.331.637-.632.938-.936 1.189-1.208 2.384-2.408 3.566-3.62q1.85-1.893 3.684-3.8c.2-.2.3-.148.467.023q3.056 3.154 6.123 6.291c.885.907 1.786 1.8 2.673 2.7.939.956 1.868 1.922 2.807 2.878.406.414.826.815 1.286 1.267-2.825 2.9-5.6 5.756-8.408 8.64-.619-.647-1.179-1.242-1.751-1.815zm-1.994-9.749a2.426 2.426 0 0 0 1.978 1.971 2.288 2.288 0 0 0 2.294-2.349 2.038 2.038 0 0 0-2.176-1.957 1.772 1.772 0 0 0-.234-.016 2.085 2.085 0 0 0-1.862 2.351zM3.481 17c.462-.452.88-.853 1.287-1.267.938-.956 1.866-1.922 2.806-2.878.889-.9 1.788-1.795 2.673-2.7q3.07-3.137 6.123-6.291c.166-.171.271-.227.467-.023q1.831 1.912 3.685 3.8c1.184 1.211 2.379 2.412 3.57 3.618.3.3.607.6.939.936l-1.754 1.775a.721.721 0 0 1-.944.133c-.3-.162-.616-.3-.927-.441a1.623 1.623 0 0 0-1.737.274q-3.041 3.113-6.069 6.239a1.357 1.357 0 0 0-.381 1.4c.119.382.3.742.437 1.116s.366.751-.012 1.132c-.572.578-1.132 1.168-1.754 1.814zm10.061-5.26a2.035 2.035 0 0 0-2.174 1.96 2.286 2.286 0 0 0 2.291 2.351 2.426 2.426 0 0 0 1.978-1.971 2.084 2.084 0 0 0-1.861-2.352 1.78 1.78 0 0 0-.234.014zm21.013-8.8c.3-.308.666-.671 1.023-1.042.2-.205.3-.011.411.1q1.629 1.671 3.253 3.344l9.373 9.635c.051.052.1.11.163.187l-1.193 1.211zM1.746 15.165c.066-.077.112-.135.163-.187q4.686-4.819 9.372-9.635L14.533 2c.11-.113.212-.308.411-.1.357.371.721.734 1.023 1.042Q9.416 9.693 2.939 16.377zM36.33 1.115c.444-.373.731-.963 1.359-1.073a1.741 1.741 0 0 1 1.67.466Q44.7 6.013 50.052 11.5a1.723 1.723 0 0 1-.016 2.387 6.92 6.92 0 0 0-.623.682L36.33 1.115zM.488 13.884A1.72 1.72 0 0 1 .473 11.5Q5.838 6.024 11.163.508a1.744 1.744 0 0 1 1.67-.466c.63.11.915.7 1.361 1.073C9.834 5.6 5.5 10.052 1.111 14.566a6.919 6.919 0 0 0-.623-.682z" transform="translate(.5 .499)" style="fill:#e81837;stroke:transparent;stroke-miterlimit:10"/>
</svg>
