<svg xmlns="http://www.w3.org/2000/svg" width="10" height="10" viewBox="0 0 10 10">
    <path d="M85-870a4.87 4.87 0 0 1-1.95-.394 5.049 5.049 0 0 1-1.587-1.069 5.051 5.051 0 0 1-1.069-1.588A4.868 4.868 0 0 1 80-875a4.869 4.869 0 0 1 .394-1.95 5.051 5.051 0 0 1 1.069-1.588 5.051 5.051 0 0 1 1.587-1.069A4.87 4.87 0 0 1 85-880a4.891 4.891 0 0 1 1.494.225 5.171 5.171 0 0 1 1.306.625l-.762.762a4.3 4.3 0 0 0-.962-.412 3.809 3.809 0 0 0-1.076-.15 3.807 3.807 0 0 0-2.794 1.156A3.807 3.807 0 0 0 81.05-875a3.806 3.806 0 0 0 1.156 2.794A3.806 3.806 0 0 0 85-871.05a3.806 3.806 0 0 0 2.794-1.156A3.806 3.806 0 0 0 88.95-875q0-.213-.019-.406a3.814 3.814 0 0 0-.056-.381l.85-.85a4.728 4.728 0 0 1 .206.794A5.048 5.048 0 0 1 90-875a4.868 4.868 0 0 1-.394 1.95 5.051 5.051 0 0 1-1.069 1.588 5.049 5.049 0 0 1-1.587 1.069A4.87 4.87 0 0 1 85-870zm-.687-2.713-2.138-2.15.738-.738 1.413 1.413 4.938-4.937.736.725z" transform="translate(-80 880)" style="fill:#22ae3f"/>
</svg>
