<svg xmlns="http://www.w3.org/2000/svg" width="14.455" height="16.039" viewBox="0 0 14.455 16.039">
    <path d="M132.169-863.961a2.2 2.2 0 0 1-1.619-.669 2.214 2.214 0 0 1-.667-1.624 2.186 2.186 0 0 1 .03-.327 1.667 1.667 0 0 1 .09-.348l-6.075-3.528a2.291 2.291 0 0 1-.742.551 2.074 2.074 0 0 1-.9.21 2.2 2.2 0 0 1-1.619-.667 2.2 2.2 0 0 1-.667-1.619 2.2 2.2 0 0 1 .667-1.619 2.2 2.2 0 0 1 1.619-.667 2.216 2.216 0 0 1 .882.18 2.42 2.42 0 0 1 .762.521l6.07-3.486a1.426 1.426 0 0 1-.09-.319 2.048 2.048 0 0 1-.03-.343 2.2 2.2 0 0 1 .667-1.619 2.2 2.2 0 0 1 1.619-.667 2.2 2.2 0 0 1 1.619.667 2.2 2.2 0 0 1 .667 1.619 2.2 2.2 0 0 1-.667 1.619 2.2 2.2 0 0 1-1.619.667 2.68 2.68 0 0 1-.9-.15 1.715 1.715 0 0 1-.728-.491l-6.075 3.368a3.707 3.707 0 0 1 .07.371 2.583 2.583 0 0 1 .03.356 1.584 1.584 0 0 1-.03.3q-.03.155-.07.316l6.075 3.448a2.385 2.385 0 0 1 .7-.451 2.341 2.341 0 0 1 .922-.17 2.2 2.2 0 0 1 1.619.667 2.2 2.2 0 0 1 .667 1.619 2.2 2.2 0 0 1-.667 1.619 2.2 2.2 0 0 1-1.61.666z" transform="translate(-120 880)" style="fill:#fff"/>
</svg>
