<svg xmlns="http://www.w3.org/2000/svg" width="9" height="9" viewBox="0 0 9 9">
    <path d="M84.5-871a4.383 4.383 0 0 1-1.755-.354 4.544 4.544 0 0 1-1.429-.962 4.545 4.545 0 0 1-.962-1.429A4.382 4.382 0 0 1 80-875.5a4.382 4.382 0 0 1 .354-1.755 4.545 4.545 0 0 1 .962-1.429 4.544 4.544 0 0 1 1.429-.962A4.381 4.381 0 0 1 84.5-880a4.4 4.4 0 0 1 1.344.2 4.655 4.655 0 0 1 1.176.563l-.686.686a3.866 3.866 0 0 0-.866-.371 3.426 3.426 0 0 0-.968-.135 3.426 3.426 0 0 0-2.514 1.041 3.426 3.426 0 0 0-1.041 2.514 3.426 3.426 0 0 0 1.041 2.514 3.426 3.426 0 0 0 2.514 1.041 3.426 3.426 0 0 0 2.514-1.041 3.426 3.426 0 0 0 1.041-2.514q0-.191-.017-.366a3.431 3.431 0 0 0-.051-.343l.765-.765a4.256 4.256 0 0 1 .186.714 4.547 4.547 0 0 1 .062.762 4.382 4.382 0 0 1-.354 1.755 4.545 4.545 0 0 1-.962 1.429 4.544 4.544 0 0 1-1.429.962A4.383 4.383 0 0 1 84.5-871zm-.619-2.441-1.924-1.935.664-.664 1.271 1.271 4.444-4.444.664.652z" transform="translate(-80 880)" style="fill:#d2353f"/>
</svg>
