<svg xmlns="http://www.w3.org/2000/svg" width="19.486" height="16.038" viewBox="0 0 19.486 16.038">
    <path d="M19.406 1.922a8.046 8.046 0 0 1-1.971.562c.317-.053.782-.627.969-.859a3.618 3.618 0 0 0 .654-1.193c.017-.034.029-.077 0-.1a.112.112 0 0 0-.1.009 10.046 10.046 0 0 1-2.337.894.156.156 0 0 1-.161-.043 1.9 1.9 0 0 0-.2-.209 4.125 4.125 0 0 0-1.145-.695 3.939 3.939 0 0 0-1.735-.28 4.147 4.147 0 0 0-1.647.465A4.244 4.244 0 0 0 10.4 1.558a4.08 4.08 0 0 0-.793 1.589 4.3 4.3 0 0 0-.042 1.678c.013.094 0 .106-.081.094A12.481 12.481 0 0 1 1.46.833c-.094-.107-.145-.107-.221.008a4.07 4.07 0 0 0 .694 4.81c.158.149.32.3.494.434a4.093 4.093 0 0 1-1.55-.434c-.093-.059-.141-.025-.149.081a2.427 2.427 0 0 0 .026.46A4.115 4.115 0 0 0 3.29 9.473a2.421 2.421 0 0 0 .514.158 4.586 4.586 0 0 1-1.519.047c-.111-.021-.153.034-.111.141a4.275 4.275 0 0 0 3.193 2.674c.145.025.289.025.435.059-.009.013-.018.013-.026.025A5.053 5.053 0 0 1 3.6 13.732a7.8 7.8 0 0 1-3.311.424c-.178-.026-.216-.024-.264 0s-.006.073.051.119c.226.149.456.281.69.409a10.885 10.885 0 0 0 2.213.886 11.789 11.789 0 0 0 11.441-2.677 12.01 12.01 0 0 0 3.168-8.762c0-.126.149-.2.237-.262a7.757 7.757 0 0 0 1.558-1.62.492.492 0 0 0 .1-.31v-.017c0-.052 0-.036-.08 0" style="fill:#fff"/>
</svg>
