<svg xmlns="http://www.w3.org/2000/svg" width="16.076" height="16.038" viewBox="0 0 16.076 16.038">
    <path d="M8.035 0a7.552 7.552 0 0 1 2.958.545 8.133 8.133 0 0 1 4.238 3.874 7.6 7.6 0 0 1 .784 2.6 8.23 8.23 0 0 1-.145 2.838 8.105 8.105 0 0 1-4.22 5.335 7.622 7.622 0 0 1-2.9.816 8.4 8.4 0 0 1-2.474-.153A7.66 7.66 0 0 1 3.75 14.8a.309.309 0 0 0-.294-.027q-1.319.427-2.64.848c-.085.027-.194.109-.262.036s.032-.164.059-.247l.428-1.3c.138-.414.274-.828.417-1.24a.309.309 0 0 0-.042-.305 7.8 7.8 0 0 1-.956-1.847A7.712 7.712 0 0 1 .006 8.37 8.046 8.046 0 0 1 4.416.844a7.535 7.535 0 0 1 2.6-.789A7.713 7.713 0 0 1 8.035 0M3.4 5.924a3.876 3.876 0 0 0 .65 1.941 13.062 13.062 0 0 0 1.328 1.754A10.177 10.177 0 0 0 6.886 11 8.814 8.814 0 0 0 9.9 12.362a2.557 2.557 0 0 0 1.941-.207 1.81 1.81 0 0 0 1.007-1.7.384.384 0 0 0-.248-.4c-.569-.26-1.117-.563-1.7-.805a.5.5 0 0 0-.731.208c-.15.219-.31.431-.478.636a.527.527 0 0 1-.666.194 5.152 5.152 0 0 1-.992-.488 6.589 6.589 0 0 1-2.174-2.243.366.366 0 0 1 .027-.526c.178-.221.383-.419.553-.65a.521.521 0 0 0 .06-.561l-.181-.417c-.209-.482-.388-.977-.618-1.451a.383.383 0 0 0-.381-.241h-.455A.988.988 0 0 0 4.2 4a2.6 2.6 0 0 0-.8 1.924" style="fill:#fff"/>
</svg>
