<svg xmlns="http://www.w3.org/2000/svg" width="4" height="21" viewBox="0 0 4 21">
    <path data-name="more_FILL1_icon" d="M433.5-780a1.434 1.434 0 0 1-1.058-.442A1.456 1.456 0 0 1 432-781.5a1.434 1.434 0 0 1 .442-1.058A1.456 1.456 0 0 1 433.5-783a1.434 1.434 0 0 1 1.058.442A1.456 1.456 0 0 1 435-781.5a1.434 1.434 0 0 1-.442 1.058 1.456 1.456 0 0 1-1.058.442zm0-8.5a1.434 1.434 0 0 1-1.058-.442A1.456 1.456 0 0 1 432-790a1.434 1.434 0 0 1 .442-1.058 1.456 1.456 0 0 1 1.063-.437 1.434 1.434 0 0 1 1.058.442A1.456 1.456 0 0 1 435-790a1.434 1.434 0 0 1-.442 1.058 1.456 1.456 0 0 1-1.058.442zm0-8.5a1.434 1.434 0 0 1-1.058-.442A1.456 1.456 0 0 1 432-798.5a1.434 1.434 0 0 1 .442-1.058A1.456 1.456 0 0 1 433.5-800a1.434 1.434 0 0 1 1.058.442A1.456 1.456 0 0 1 435-798.5a1.434 1.434 0 0 1-.442 1.058 1.456 1.456 0 0 1-1.058.442z" transform="translate(-431.5 800.5)" style="stroke:#fff"/>
</svg>
